# Blender 4.3.2
# www.blender.org
mtllib depot.mtl
o Cube
v 10.000000 1.000000 -10.000000
v 10.000000 -1.000000 -10.000000
v 10.000000 1.000000 10.000000
v 10.000000 -1.000000 10.000000
v -10.000000 1.000000 -10.000000
v -10.000000 -1.000000 -10.000000
v -10.000000 1.000000 10.000000
v -10.000000 -1.000000 10.000000
v 0.000000 -2.173407 0.000000
v 1.748304 -0.383537 1.270202
v -0.667780 -0.383538 2.055249
v -2.161019 -0.383524 0.000000
v -0.667780 -0.383538 -2.055249
v 1.748304 -0.383537 -1.270202
v 0.667780 2.512604 2.055249
v -1.748304 2.512603 1.270202
v -1.748304 2.512603 -1.270202
v 0.667780 2.512604 -2.055249
v 2.161019 2.512591 0.000000
v 0.000000 4.302474 0.000000
v -0.392508 -1.689835 1.208036
v 1.027620 -1.689834 0.746601
v 0.635116 -0.637774 1.954649
v 2.055246 -0.637768 0.000000
v 1.027620 -1.689834 -0.746601
v -1.270213 -1.689826 0.000000
v -1.662731 -0.637769 1.208040
v -0.392508 -1.689835 -1.208036
v -1.662731 -0.637769 -1.208040
v 0.635116 -0.637774 -1.954649
v 2.297846 1.064533 0.746604
v 2.297846 1.064533 -0.746604
v 0.000000 1.064533 2.416095
v 1.420146 1.064533 1.954661
v -2.297846 1.064533 0.746604
v -1.420146 1.064533 1.954661
v -1.420146 1.064533 -1.954661
v -2.297846 1.064533 -0.746604
v 1.420146 1.064533 -1.954661
v 0.000000 1.064533 -2.416095
v 1.662731 2.766836 1.208040
v -0.635116 2.766840 1.954649
v -2.055246 2.766835 0.000000
v -0.635116 2.766840 -1.954649
v 1.662731 2.766836 -1.208040
v 0.392508 3.818901 1.208036
v 1.270213 3.818892 0.000000
v -1.027620 3.818901 0.746601
v -1.027620 3.818901 -0.746601
v 0.392508 3.818901 -1.208036
v 0.000000 2.035578 -0.055766
v 0.000000 6.660158 -0.055766
v 0.010879 2.035578 -0.054695
v 0.010879 6.660158 -0.054695
v 0.021341 2.035578 -0.051521
v 0.021341 6.660158 -0.051521
v 0.030982 2.035578 -0.046368
v 0.030982 6.660158 -0.046368
v 0.039433 2.035578 -0.039433
v 0.039433 6.660158 -0.039433
v 0.046368 2.035578 -0.030982
v 0.046368 6.660158 -0.030982
v 0.051521 2.035578 -0.021341
v 0.051521 6.660158 -0.021341
v 0.054695 2.035578 -0.010879
v 0.054695 6.660158 -0.010879
v 0.055766 2.035578 -0.000000
v 0.055766 6.660158 -0.000000
v 0.054695 2.035578 0.010879
v 0.054695 6.660158 0.010879
v 0.051521 2.035578 0.021341
v 0.051521 6.660158 0.021341
v 0.046368 2.035578 0.030982
v 0.046368 6.660158 0.030982
v 0.039433 2.035578 0.039433
v 0.039433 6.660158 0.039433
v 0.030982 2.035578 0.046368
v 0.030982 6.660158 0.046368
v 0.021341 2.035578 0.051521
v 0.021341 6.660158 0.051521
v 0.010879 2.035578 0.054695
v 0.010879 6.660158 0.054695
v -0.000000 2.035578 0.055766
v -0.000000 6.660158 0.055766
v -0.010879 2.035578 0.054695
v -0.010879 6.660158 0.054695
v -0.021341 2.035578 0.051521
v -0.021341 6.660158 0.051521
v -0.030982 2.035578 0.046368
v -0.030982 6.660158 0.046368
v -0.039433 2.035578 0.039433
v -0.039433 6.660158 0.039433
v -0.046368 2.035578 0.030982
v -0.046368 6.660158 0.030982
v -0.051521 2.035578 0.021341
v -0.051521 6.660158 0.021341
v -0.054695 2.035578 0.010879
v -0.054695 6.660158 0.010879
v -0.055766 2.035578 -0.000000
v -0.055766 6.660158 -0.000000
v -0.054695 2.035578 -0.010880
v -0.054695 6.660158 -0.010880
v -0.051521 2.035578 -0.021341
v -0.051521 6.660158 -0.021341
v -0.046368 2.035578 -0.030982
v -0.046368 6.660158 -0.030982
v -0.039433 2.035578 -0.039433
v -0.039433 6.660158 -0.039433
v -0.030982 2.035578 -0.046368
v -0.030982 6.660158 -0.046368
v -0.021341 2.035578 -0.051521
v -0.021341 6.660158 -0.051521
v -0.010879 2.035578 -0.054695
v -0.010879 6.660158 -0.054695
v -1.729091 5.766148 0.060889
v -1.729091 6.604972 0.060889
v -1.729091 5.766148 -0.060889
v -1.729091 6.604972 -0.060889
v 0.058317 5.766148 0.060889
v 0.058317 6.604972 0.060889
v 0.058317 5.766148 -0.060889
v 0.058317 6.604972 -0.060889
vn -0.0000 1.0000 -0.0000
vn -0.0000 -0.0000 1.0000
vn -1.0000 -0.0000 -0.0000
vn -0.0000 -1.0000 -0.0000
vn 1.0000 -0.0000 -0.0000
vn -0.0000 -0.0000 -1.0000
vn 0.1316 -0.9048 0.4049
vn 0.7800 -0.5500 0.2986
vn -0.3445 -0.9048 0.2503
vn -0.3445 -0.9048 -0.2503
vn 0.1316 -0.9048 -0.4049
vn 0.9277 -0.2527 0.2748
vn 0.0254 -0.2527 0.9672
vn -0.9120 -0.2527 0.3230
vn -0.5890 -0.2527 -0.7676
vn 0.5480 -0.2527 -0.7974
vn 0.8054 -0.0941 0.5852
vn -0.3076 -0.0941 0.9468
vn -0.9956 -0.0941 -0.0000
vn -0.3076 -0.0941 -0.9468
vn 0.8054 -0.0941 -0.5852
vn 0.4555 0.5500 0.7000
vn -0.5250 0.5500 0.6495
vn -0.7800 0.5500 -0.2986
vn 0.0429 0.5500 -0.8341
vn 0.8065 0.5500 -0.2169
vn 0.3445 0.9048 -0.2503
vn 0.5787 0.6988 -0.4205
vn 0.4555 0.5500 -0.7000
vn -0.1316 0.9048 -0.4049
vn -0.2211 0.6988 -0.6804
vn -0.5250 0.5500 -0.6495
vn -0.4258 0.9048 -0.0000
vn -0.7154 0.6987 -0.0000
vn -0.7800 0.5500 0.2986
vn -0.1316 0.9048 0.4049
vn -0.2211 0.6988 0.6804
vn 0.0429 0.5500 0.8341
vn 0.3445 0.9048 0.2503
vn 0.5787 0.6988 0.4205
vn 0.8065 0.5500 0.2169
vn 0.9120 0.2527 -0.3230
vn 0.8009 0.1411 -0.5819
vn 0.5890 0.2527 -0.7676
vn -0.0254 0.2527 -0.9672
vn -0.3059 0.1411 -0.9415
vn -0.5480 0.2527 -0.7974
vn -0.9277 0.2527 -0.2748
vn -0.9900 0.1411 -0.0000
vn -0.9277 0.2527 0.2748
vn -0.5480 0.2527 0.7974
vn -0.3059 0.1411 0.9415
vn -0.0254 0.2527 0.9672
vn 0.5890 0.2527 0.7676
vn 0.8009 0.1411 0.5819
vn 0.9120 0.2527 0.3230
vn 0.3076 0.0941 -0.9468
vn 0.3059 -0.1411 -0.9415
vn 0.0254 -0.2527 -0.9672
vn -0.8054 0.0941 -0.5852
vn -0.8009 -0.1411 -0.5819
vn -0.9120 -0.2527 -0.3230
vn -0.8054 0.0941 0.5852
vn -0.8009 -0.1411 0.5819
vn -0.5890 -0.2527 0.7676
vn 0.3076 0.0941 0.9468
vn 0.3059 -0.1411 0.9415
vn 0.5480 -0.2527 0.7974
vn 0.9956 0.0941 -0.0000
vn 0.9900 -0.1411 -0.0000
vn 0.9277 -0.2527 -0.2748
vn 0.5250 -0.5500 -0.6495
vn 0.2211 -0.6988 -0.6804
vn -0.0429 -0.5500 -0.8341
vn -0.4555 -0.5500 -0.7000
vn -0.5787 -0.6988 -0.4205
vn -0.8065 -0.5500 -0.2169
vn -0.8065 -0.5500 0.2169
vn -0.5787 -0.6988 0.4205
vn -0.4555 -0.5500 0.7000
vn 0.7800 -0.5500 -0.2986
vn 0.7154 -0.6987 -0.0000
vn 0.4258 -0.9048 -0.0000
vn -0.0429 -0.5500 0.8341
vn 0.2211 -0.6988 0.6804
vn 0.5250 -0.5500 0.6495
vn 0.0980 -0.0000 -0.9952
vn 0.2903 -0.0000 -0.9569
vn 0.4714 -0.0000 -0.8819
vn 0.6344 -0.0000 -0.7730
vn 0.7730 -0.0000 -0.6344
vn 0.8819 -0.0000 -0.4714
vn 0.9569 -0.0000 -0.2903
vn 0.9952 -0.0000 -0.0980
vn 0.9952 -0.0000 0.0980
vn 0.9569 -0.0000 0.2903
vn 0.8819 -0.0000 0.4714
vn 0.7730 -0.0000 0.6344
vn 0.6344 -0.0000 0.7730
vn 0.4714 -0.0000 0.8819
vn 0.2903 -0.0000 0.9569
vn 0.0980 -0.0000 0.9952
vn -0.0980 -0.0000 0.9952
vn -0.2903 -0.0000 0.9569
vn -0.4714 -0.0000 0.8819
vn -0.6344 -0.0000 0.7730
vn -0.7730 -0.0000 0.6344
vn -0.8819 -0.0000 0.4714
vn -0.9569 -0.0000 0.2903
vn -0.9952 -0.0000 0.0980
vn -0.9952 -0.0000 -0.0980
vn -0.9569 -0.0000 -0.2903
vn -0.8819 -0.0000 -0.4714
vn -0.7730 -0.0000 -0.6344
vn -0.6344 -0.0000 -0.7730
vn -0.4714 -0.0000 -0.8819
vn -0.2903 -0.0000 -0.9569
vn -0.0980 -0.0000 -0.9952
vn 0.0003 1.0000 -0.0000
vn -0.0004 1.0000 -0.0000
vn 0.0004 1.0000 -0.0000
vn -0.0002 1.0000 -0.0000
vn -0.0001 1.0000 -0.0000
vn 0.0001 1.0000 -0.0000
vn 0.0002 1.0000 -0.0000
vn 0.0002 -1.0000 -0.0000
vn -0.0001 -1.0000 -0.0000
vn 0.0001 -1.0000 -0.0000
vn -0.0004 -1.0000 -0.0000
vt 0.875000 0.500000
vt 0.625000 0.750000
vt 0.625000 0.500000
vt 0.375000 1.000000
vt 0.375000 0.750000
vt 0.625000 0.000000
vt 0.375000 0.250000
vt 0.375000 0.000000
vt 0.375000 0.500000
vt 0.125000 0.750000
vt 0.125000 0.500000
vt 0.625000 0.250000
vt 0.818181 0.000000
vt 0.772726 0.078731
vt 0.863635 0.078731
vt 0.727272 0.157461
vt 0.681818 0.078731
vt 0.636363 0.157461
vt 0.090909 0.000000
vt 0.045454 0.078731
vt 0.136363 0.078731
vt 0.272727 0.000000
vt 0.227273 0.078731
vt 0.318182 0.078731
vt 0.454545 0.000000
vt 0.409090 0.078731
vt 0.500000 0.078731
vt 0.681818 0.236191
vt 0.909090 0.157461
vt 0.818181 0.157461
vt 0.863635 0.236191
vt 0.181818 0.157461
vt 0.090909 0.157461
vt 0.136363 0.236191
vt 0.363636 0.157461
vt 0.272727 0.157461
vt 0.318182 0.236191
vt 0.545454 0.157461
vt 0.454545 0.157461
vt 0.500000 0.236191
vt 0.772726 0.236191
vt 0.954545 0.236191
vt 0.227273 0.236191
vt 0.409090 0.236191
vt 0.590909 0.236191
vt 0.818181 0.314921
vt 0.727272 0.314921
vt 0.772726 0.393651
vt 1.000000 0.314921
vt 0.909091 0.314921
vt 0.954545 0.393651
vt 0.272727 0.314921
vt 0.181818 0.314921
vt 0.227273 0.393651
vt 0.454545 0.314921
vt 0.363636 0.314921
vt 0.409090 0.393651
vt 0.636363 0.314921
vt 0.545454 0.314921
vt 0.590909 0.393651
vt 0.500000 0.393651
vt 0.545454 0.472382
vt 0.318182 0.393651
vt 0.363636 0.472382
vt 0.136363 0.393651
vt 0.181818 0.472382
vt 0.090909 0.314921
vt 0.863635 0.393651
vt 0.909090 0.472382
vt 0.681818 0.393651
vt 0.727272 0.472382
vt 0.045454 0.236191
vt 0.000000 0.157461
vt 0.590909 0.078731
vt 0.636363 0.000000
vt 1.000000 1.000000
vt 0.968750 0.500000
vt 1.000000 0.500000
vt 0.968750 1.000000
vt 0.937500 0.500000
vt 0.937500 1.000000
vt 0.906250 0.500000
vt 0.906250 1.000000
vt 0.875000 1.000000
vt 0.843750 0.500000
vt 0.843750 1.000000
vt 0.812500 0.500000
vt 0.812500 1.000000
vt 0.781250 0.500000
vt 0.781250 1.000000
vt 0.750000 0.500000
vt 0.750000 1.000000
vt 0.718750 0.500000
vt 0.718750 1.000000
vt 0.687500 0.500000
vt 0.687500 1.000000
vt 0.656250 0.500000
vt 0.656250 1.000000
vt 0.625000 1.000000
vt 0.593750 0.500000
vt 0.593750 1.000000
vt 0.562500 0.500000
vt 0.562500 1.000000
vt 0.531250 0.500000
vt 0.531250 1.000000
vt 0.500000 0.500000
vt 0.500000 1.000000
vt 0.468750 0.500000
vt 0.468750 1.000000
vt 0.437500 0.500000
vt 0.437500 1.000000
vt 0.406250 0.500000
vt 0.406250 1.000000
vt 0.343750 0.500000
vt 0.343750 1.000000
vt 0.312500 0.500000
vt 0.312500 1.000000
vt 0.281250 0.500000
vt 0.281250 1.000000
vt 0.250000 0.500000
vt 0.250000 1.000000
vt 0.218750 0.500000
vt 0.218750 1.000000
vt 0.187500 0.500000
vt 0.187500 1.000000
vt 0.156250 0.500000
vt 0.156250 1.000000
vt 0.125000 1.000000
vt 0.093750 0.500000
vt 0.093750 1.000000
vt 0.062500 0.500000
vt 0.471731 0.341844
vt 0.341844 0.471731
vt 0.158156 0.028269
vt 0.062500 1.000000
vt 0.031250 0.500000
vt 0.031250 1.000000
vt 0.000000 0.500000
vt 0.796822 0.014612
vt 0.514611 0.203179
vt 0.703179 0.485389
vt 0.875000 0.750000
vt 0.296822 0.485388
vt 0.250000 0.490000
vt 0.203179 0.485389
vt 0.158156 0.471731
vt 0.116663 0.449553
vt 0.080295 0.419706
vt 0.050447 0.383337
vt 0.028269 0.341844
vt 0.014612 0.296822
vt 0.010000 0.250000
vt 0.014611 0.203179
vt 0.028269 0.158156
vt 0.050447 0.116663
vt 0.080294 0.080294
vt 0.116663 0.050447
vt 0.203178 0.014612
vt 0.250000 0.010000
vt 0.296822 0.014612
vt 0.341844 0.028269
vt 0.383337 0.050447
vt 0.419706 0.080294
vt 0.449553 0.116663
vt 0.471731 0.158156
vt 0.485388 0.203178
vt 0.490000 0.250000
vt 0.485388 0.296822
vt 0.449553 0.383337
vt 0.419706 0.419706
vt 0.383337 0.449553
vt 0.000000 1.000000
vt 0.750000 0.490000
vt 0.796822 0.485388
vt 0.841844 0.471731
vt 0.883337 0.449553
vt 0.919706 0.419706
vt 0.985388 0.296822
vt 0.949553 0.383337
vt 0.971731 0.341844
vt 0.990000 0.250000
vt 0.985388 0.203178
vt 0.971731 0.158156
vt 0.949553 0.116663
vt 0.919706 0.080294
vt 0.883337 0.050447
vt 0.841844 0.028269
vt 0.750000 0.010000
vt 0.703178 0.014612
vt 0.658156 0.028269
vt 0.616663 0.050447
vt 0.580294 0.080294
vt 0.550447 0.116663
vt 0.528269 0.158156
vt 0.510000 0.250000
vt 0.514612 0.296822
vt 0.528269 0.341844
vt 0.550447 0.383337
vt 0.580295 0.419706
vt 0.616663 0.449553
vt 0.658156 0.471731
s 0
usemtl Material
f 5/1/1 3/2/1 1/3/1
f 3/2/2 8/4/2 4/5/2
f 7/6/3 6/7/3 8/8/3
f 2/9/4 8/10/4 6/11/4
f 1/3/5 4/5/5 2/9/5
f 5/12/6 2/9/6 6/7/6
f 9/13/7 22/14/7 21/15/7
f 10/16/8 22/17/8 24/18/8
f 9/19/9 21/20/9 26/21/9
f 9/22/10 26/23/10 28/24/10
f 9/25/11 28/26/11 25/27/11
f 10/16/12 24/18/12 31/28/12
f 11/29/13 23/30/13 33/31/13
f 12/32/14 27/33/14 35/34/14
f 13/35/15 29/36/15 37/37/15
f 14/38/16 30/39/16 39/40/16
f 10/16/17 31/28/17 34/41/17
f 11/29/18 33/31/18 36/42/18
f 12/32/19 35/34/19 38/43/19
f 13/35/20 37/37/20 40/44/20
f 14/38/21 39/40/21 32/45/21
f 15/46/22 41/47/22 46/48/22
f 16/49/23 42/50/23 48/51/23
f 17/52/24 43/53/24 49/54/24
f 18/55/25 44/56/25 50/57/25
f 19/58/26 45/59/26 47/60/26
f 47/60/27 50/61/27 20/62/27
f 47/60/28 45/59/28 50/61/28
f 45/59/29 18/55/29 50/61/29
f 50/57/30 49/63/30 20/64/30
f 50/57/31 44/56/31 49/63/31
f 44/56/32 17/52/32 49/63/32
f 49/54/33 48/65/33 20/66/33
f 49/54/34 43/53/34 48/65/34
f 43/53/35 16/67/35 48/65/35
f 48/51/36 46/68/36 20/69/36
f 48/51/37 42/50/37 46/68/37
f 42/50/38 15/46/38 46/68/38
f 46/48/39 47/70/39 20/71/39
f 46/48/40 41/47/40 47/70/40
f 41/47/41 19/58/41 47/70/41
f 32/45/42 45/59/42 19/58/42
f 32/45/43 39/40/43 45/59/43
f 39/40/44 18/55/44 45/59/44
f 40/44/45 44/56/45 18/55/45
f 40/44/46 37/37/46 44/56/46
f 37/37/47 17/52/47 44/56/47
f 38/43/48 43/53/48 17/52/48
f 38/43/49 35/34/49 43/53/49
f 35/34/50 16/67/50 43/53/50
f 36/42/51 42/50/51 16/49/51
f 36/42/52 33/31/52 42/50/52
f 33/31/53 15/46/53 42/50/53
f 34/41/54 41/47/54 15/46/54
f 34/41/55 31/28/55 41/47/55
f 31/28/56 19/58/56 41/47/56
f 39/40/57 40/44/57 18/55/57
f 39/40/58 30/39/58 40/44/58
f 30/39/59 13/35/59 40/44/59
f 37/37/60 38/43/60 17/52/60
f 37/37/61 29/36/61 38/43/61
f 29/36/62 12/32/62 38/43/62
f 35/34/63 36/72/63 16/67/63
f 35/34/64 27/33/64 36/72/64
f 27/33/65 11/73/65 36/72/65
f 33/31/66 34/41/66 15/46/66
f 33/31/67 23/30/67 34/41/67
f 23/30/68 10/16/68 34/41/68
f 31/28/69 32/45/69 19/58/69
f 31/28/70 24/18/70 32/45/70
f 24/18/71 14/38/71 32/45/71
f 25/27/72 30/39/72 14/38/72
f 25/27/73 28/26/73 30/39/73
f 28/26/74 13/35/74 30/39/74
f 28/24/75 29/36/75 13/35/75
f 28/24/76 26/23/76 29/36/76
f 26/23/77 12/32/77 29/36/77
f 26/21/78 27/33/78 12/32/78
f 26/21/79 21/20/79 27/33/79
f 21/20/80 11/73/80 27/33/80
f 24/18/81 25/74/81 14/38/81
f 24/18/82 22/17/82 25/74/82
f 22/17/83 9/75/83 25/74/83
f 21/15/84 23/30/84 11/29/84
f 21/15/85 22/14/85 23/30/85
f 22/14/86 10/16/86 23/30/86
f 52/76/87 53/77/87 51/78/87
f 54/79/88 55/80/88 53/77/88
f 56/81/89 57/82/89 55/80/89
f 58/83/90 59/1/90 57/82/90
f 60/84/91 61/85/91 59/1/91
f 62/86/92 63/87/92 61/85/92
f 64/88/93 65/89/93 63/87/93
f 66/90/94 67/91/94 65/89/94
f 68/92/95 69/93/95 67/91/95
f 70/94/96 71/95/96 69/93/96
f 72/96/97 73/97/97 71/95/97
f 74/98/98 75/3/98 73/97/98
f 76/99/99 77/100/99 75/3/99
f 78/101/100 79/102/100 77/100/100
f 80/103/101 81/104/101 79/102/101
f 82/105/102 83/106/102 81/104/102
f 84/107/103 85/108/103 83/106/103
f 86/109/104 87/110/104 85/108/104
f 88/111/105 89/112/105 87/110/105
f 90/113/106 91/9/106 89/112/106
f 92/4/107 93/114/107 91/9/107
f 94/115/108 95/116/108 93/114/108
f 96/117/109 97/118/109 95/116/109
f 98/119/110 99/120/110 97/118/110
f 100/121/111 101/122/111 99/120/111
f 102/123/112 103/124/112 101/122/112
f 104/125/113 105/126/113 103/124/113
f 106/127/114 107/11/114 105/126/114
f 108/128/115 109/129/115 107/11/115
f 110/130/116 111/131/116 109/129/116
f 64/132/1 56/133/1 88/134/1
f 112/135/117 113/136/117 111/131/117
f 114/137/118 51/138/118 113/136/118
f 81/139/4 97/140/4 113/141/4
f 116/6/3 117/7/3 115/8/3
f 118/12/6 121/9/6 117/7/6
f 122/3/5 119/5/5 121/9/5
f 120/2/2 115/4/2 119/5/2
f 121/9/4 115/10/4 117/11/4
f 118/1/1 120/2/1 122/3/1
f 5/1/1 7/142/1 3/2/1
f 3/2/2 7/99/2 8/4/2
f 7/6/3 5/12/3 6/7/3
f 2/9/4 4/5/4 8/10/4
f 1/3/5 3/2/5 4/5/5
f 5/12/6 1/3/6 2/9/6
f 52/76/87 54/79/87 53/77/87
f 54/79/88 56/81/88 55/80/88
f 56/81/89 58/83/89 57/82/89
f 58/83/90 60/84/90 59/1/90
f 60/84/91 62/86/91 61/85/91
f 62/86/92 64/88/92 63/87/92
f 64/88/93 66/90/93 65/89/93
f 66/90/94 68/92/94 67/91/94
f 68/92/95 70/94/95 69/93/95
f 70/94/96 72/96/96 71/95/96
f 72/96/97 74/98/97 73/97/97
f 74/98/98 76/99/98 75/3/98
f 76/99/99 78/101/99 77/100/99
f 78/101/100 80/103/100 79/102/100
f 80/103/101 82/105/101 81/104/101
f 82/105/102 84/107/102 83/106/102
f 84/107/103 86/109/103 85/108/103
f 86/109/104 88/111/104 87/110/104
f 88/111/105 90/113/105 89/112/105
f 90/113/106 92/4/106 91/9/106
f 92/4/107 94/115/107 93/114/107
f 94/115/108 96/117/108 95/116/108
f 96/117/109 98/119/109 97/118/109
f 98/119/110 100/121/110 99/120/110
f 100/121/111 102/123/111 101/122/111
f 102/123/112 104/125/112 103/124/112
f 104/125/113 106/127/113 105/126/113
f 106/127/114 108/128/114 107/11/114
f 108/128/115 110/130/115 109/129/115
f 110/130/116 112/135/116 111/131/116
f 56/133/1 54/143/1 52/144/1
f 52/144/1 114/145/1 56/133/1
f 114/145/1 112/146/1 56/133/1
f 112/146/1 110/147/1 108/148/1
f 108/148/1 106/149/1 112/146/1
f 106/149/119 104/150/119 112/146/119
f 104/150/1 102/151/1 100/152/1
f 100/152/120 98/153/120 96/154/120
f 96/154/1 94/155/1 92/156/1
f 92/156/1 90/157/1 88/134/1
f 88/134/1 86/158/1 84/159/1
f 84/159/1 82/160/1 80/161/1
f 80/161/121 78/162/121 76/163/121
f 76/163/120 74/164/120 72/165/120
f 72/165/121 70/166/121 68/167/121
f 68/167/1 66/168/1 64/132/1
f 64/132/120 62/169/120 60/170/120
f 60/170/122 58/171/122 56/133/122
f 104/150/1 100/152/1 88/134/1
f 100/152/123 96/154/123 88/134/123
f 96/154/124 92/156/124 88/134/124
f 88/134/1 84/159/1 80/161/1
f 80/161/1 76/163/1 88/134/1
f 76/163/1 72/165/1 88/134/1
f 72/165/125 68/167/125 64/132/125
f 64/132/124 60/170/124 56/133/124
f 56/133/1 112/146/1 88/134/1
f 112/146/1 104/150/1 88/134/1
f 72/165/1 64/132/1 88/134/1
f 112/135/117 114/137/117 113/136/117
f 114/137/118 52/172/118 51/138/118
f 113/141/4 51/173/4 53/174/4
f 53/174/4 55/175/4 113/141/4
f 55/175/4 57/176/4 113/141/4
f 57/176/4 59/177/4 65/178/4
f 59/177/4 61/179/4 65/178/4
f 61/179/4 63/180/4 65/178/4
f 65/178/126 67/181/126 69/182/126
f 69/182/127 71/183/127 65/178/127
f 71/183/4 73/184/4 65/178/4
f 73/184/4 75/185/4 81/139/4
f 75/185/4 77/186/4 81/139/4
f 77/186/4 79/187/4 81/139/4
f 81/139/4 83/188/4 85/189/4
f 85/189/4 87/190/4 81/139/4
f 87/190/4 89/191/4 81/139/4
f 89/191/4 91/192/4 97/140/4
f 91/192/128 93/193/128 97/140/128
f 93/193/129 95/194/129 97/140/129
f 97/140/4 99/195/4 101/196/4
f 101/196/4 103/197/4 97/140/4
f 103/197/128 105/198/128 97/140/128
f 105/198/4 107/199/4 113/141/4
f 107/199/4 109/200/4 113/141/4
f 109/200/4 111/201/4 113/141/4
f 113/141/4 57/176/4 81/139/4
f 57/176/4 65/178/4 81/139/4
f 65/178/4 73/184/4 81/139/4
f 81/139/4 89/191/4 97/140/4
f 97/140/4 105/198/4 113/141/4
f 116/6/3 118/12/3 117/7/3
f 118/12/6 122/3/6 121/9/6
f 122/3/5 120/2/5 119/5/5
f 120/2/2 116/99/2 115/4/2
f 121/9/4 119/5/4 115/10/4
f 118/1/1 116/142/1 120/2/1
